{
	"asset":{
		"generator":"Khronos glTF Blender I/O v4.1.63",
		"version":"2.0"
	},
	"extensionsUsed":[
		"KHR_materials_unlit",
		"KHR_materials_transmission",
		"KHR_materials_ior"
	],
	"scene":0,
	"scenes":[
		{
			"extras":{
				"NWBusyDrawing":"",
				"NWLazySource":"Color Ramp",
				"NWLazyTarget":"Color Ramp"
			},
			"name":"Scene",
			"nodes":[
				0,
				1,
				2
			]
		}
	],
	"nodes":[
		{
			"mesh":0,
			"name":"hairclip",
			"rotation":[
				-0.0047754328697919846,
				0.23301491141319275,
				0.08541476726531982,
				0.968703031539917
			],
			"scale":[
				0.08327434211969376,
				0.06719043105840683,
				0.07769286632537842
			],
			"translation":[
				-0.045336753129959106,
				0.07604138553142548,
				-0.06706195324659348
			]
		},
		{
			"mesh":1,
			"name":"Cylinder",
			"rotation":[
				0.749279260635376,
				0.23805545270442963,
				-0.15606582164764404,
				0.5979580283164978
			],
			"scale":[
				0.008662356063723564,
				0.045376554131507874,
				0.008662356063723564
			],
			"translation":[
				0.022224485874176025,
				0.07980170100927353,
				0.03692539036273956
			]
		},
		{
			"name":"GPencil"
		}
	],
	"materials":[
		{
			"doubleSided":true,
			"extensions":{
				"KHR_materials_unlit":{}
			},
			"name":"Material",
			"pbrMetallicRoughness":{
				"baseColorTexture":{
					"index":0
				},
				"metallicFactor":0,
				"roughnessFactor":0.9
			}
		},
		{
			"doubleSided":true,
			"extensions":{
				"KHR_materials_unlit":{}
			},
			"name":"Material.001",
			"pbrMetallicRoughness":{
				"metallicFactor":0,
				"roughnessFactor":0.9
			}
		},
		{
			"doubleSided":true,
			"extensions":{
				"KHR_materials_unlit":{}
			},
			"name":"Material.002",
			"pbrMetallicRoughness":{
				"metallicFactor":0,
				"roughnessFactor":0.9
			}
		},
		{
			"doubleSided":true,
			"extensions":{
				"KHR_materials_unlit":{}
			},
			"name":"Material.003",
			"pbrMetallicRoughness":{
				"metallicFactor":0,
				"roughnessFactor":0.9
			}
		},
		{
			"doubleSided":true,
			"extensions":{
				"KHR_materials_unlit":{}
			},
			"name":"Material.004",
			"pbrMetallicRoughness":{
				"metallicFactor":0,
				"roughnessFactor":0.9
			}
		},
		{
			"doubleSided":true,
			"extensions":{
				"KHR_materials_unlit":{}
			},
			"name":"Material.005",
			"pbrMetallicRoughness":{
				"metallicFactor":0,
				"roughnessFactor":0.9
			}
		},
		{
			"doubleSided":true,
			"extensions":{
				"KHR_materials_transmission":{
					"transmissionFactor":1
				},
				"KHR_materials_ior":{
					"ior":1.4500000476837158
				}
			},
			"name":"glass",
			"pbrMetallicRoughness":{
				"baseColorFactor":[
					0.9230083227157593,
					0.8753316402435303,
					1,
					1
				],
				"metallicFactor":0,
				"roughnessFactor":0
			}
		},
		{
			"doubleSided":true,
			"extensions":{
				"KHR_materials_unlit":{}
			},
			"name":"Material.006",
			"pbrMetallicRoughness":{
				"metallicFactor":0,
				"roughnessFactor":0.9
			}
		}
	],
	"meshes":[
		{
			"name":"hairclip",
			"primitives":[
				{
					"attributes":{
						"POSITION":0,
						"NORMAL":1,
						"TEXCOORD_0":2
					},
					"indices":3,
					"material":0
				},
				{
					"attributes":{
						"POSITION":4,
						"NORMAL":5,
						"TEXCOORD_0":6
					},
					"indices":7,
					"material":1
				},
				{
					"attributes":{
						"POSITION":8,
						"NORMAL":9,
						"TEXCOORD_0":10
					},
					"indices":11,
					"material":2
				},
				{
					"attributes":{
						"POSITION":12,
						"NORMAL":13,
						"TEXCOORD_0":14
					},
					"indices":15,
					"material":3
				},
				{
					"attributes":{
						"POSITION":16,
						"NORMAL":17,
						"TEXCOORD_0":18
					},
					"indices":19,
					"material":4
				},
				{
					"attributes":{
						"POSITION":20,
						"NORMAL":21,
						"TEXCOORD_0":22
					},
					"indices":23,
					"material":5
				},
				{
					"attributes":{
						"POSITION":24,
						"NORMAL":25,
						"TEXCOORD_0":26
					},
					"indices":27,
					"material":6
				}
			]
		},
		{
			"name":"Cylinder",
			"primitives":[
				{
					"attributes":{
						"POSITION":28,
						"NORMAL":29,
						"TEXCOORD_0":30
					},
					"indices":31,
					"material":7
				}
			]
		}
	],
	"textures":[
		{
			"sampler":0,
			"source":0
		}
	],
	"images":[
		{
			"mimeType":"image/png",
			"name":"hairpin",
			"uri":"hairpin.png"
		}
	],
	"accessors":[
		{
			"bufferView":0,
			"componentType":5126,
			"count":192,
			"max":[
				0.08659155666828156,
				0.09814085066318512,
				0.04547390341758728
			],
			"min":[
				0.04306641221046448,
				0.039863526821136475,
				-0.0018952488899230957
			],
			"type":"VEC3"
		},
		{
			"bufferView":1,
			"componentType":5126,
			"count":192,
			"type":"VEC3"
		},
		{
			"bufferView":2,
			"componentType":5126,
			"count":192,
			"type":"VEC2"
		},
		{
			"bufferView":3,
			"componentType":5123,
			"count":372,
			"type":"SCALAR"
		},
		{
			"bufferView":4,
			"componentType":5126,
			"count":2754,
			"max":[
				0.2142028510570526,
				0.4321458339691162,
				0.6683435440063477
			],
			"min":[
				-0.827786922454834,
				0.04602852836251259,
				-0.4283989369869232
			],
			"type":"VEC3"
		},
		{
			"bufferView":5,
			"componentType":5126,
			"count":2754,
			"type":"VEC3"
		},
		{
			"bufferView":6,
			"componentType":5126,
			"count":2754,
			"type":"VEC2"
		},
		{
			"bufferView":7,
			"componentType":5123,
			"count":16416,
			"type":"SCALAR"
		},
		{
			"bufferView":8,
			"componentType":5126,
			"count":3978,
			"max":[
				0.723015546798706,
				0.3101159334182739,
				0.1381170153617859
			],
			"min":[
				-0.12747374176979065,
				-0.24260127544403076,
				-0.8400521278381348
			],
			"type":"VEC3"
		},
		{
			"bufferView":9,
			"componentType":5126,
			"count":3978,
			"type":"VEC3"
		},
		{
			"bufferView":10,
			"componentType":5126,
			"count":3978,
			"type":"VEC2"
		},
		{
			"bufferView":11,
			"componentType":5123,
			"count":23712,
			"type":"SCALAR"
		},
		{
			"bufferView":12,
			"componentType":5126,
			"count":14320,
			"max":[
				0.5231515169143677,
				0.3793136775493622,
				0.6741729974746704
			],
			"min":[
				-0.47200000286102295,
				-0.12759752571582794,
				-0.49318838119506836
			],
			"type":"VEC3"
		},
		{
			"bufferView":13,
			"componentType":5126,
			"count":14320,
			"type":"VEC3"
		},
		{
			"bufferView":14,
			"componentType":5126,
			"count":14320,
			"type":"VEC2"
		},
		{
			"bufferView":15,
			"componentType":5123,
			"count":25956,
			"type":"SCALAR"
		},
		{
			"bufferView":16,
			"componentType":5126,
			"count":11904,
			"max":[
				0.45394861698150635,
				0.246208056807518,
				0.6084170341491699
			],
			"min":[
				0.06494325399398804,
				-0.15060076117515564,
				0.018119394779205322
			],
			"type":"VEC3"
		},
		{
			"bufferView":17,
			"componentType":5126,
			"count":11904,
			"type":"VEC3"
		},
		{
			"bufferView":18,
			"componentType":5126,
			"count":11904,
			"type":"VEC2"
		},
		{
			"bufferView":19,
			"componentType":5123,
			"count":17280,
			"type":"SCALAR"
		},
		{
			"bufferView":20,
			"componentType":5126,
			"count":1224,
			"max":[
				0.14793339371681213,
				0.49522024393081665,
				0.6680280566215515
			],
			"min":[
				-0.7243011593818665,
				0.05862108990550041,
				-0.45649799704551697
			],
			"type":"VEC3"
		},
		{
			"bufferView":21,
			"componentType":5126,
			"count":1224,
			"type":"VEC3"
		},
		{
			"bufferView":22,
			"componentType":5126,
			"count":1224,
			"type":"VEC2"
		},
		{
			"bufferView":23,
			"componentType":5123,
			"count":7296,
			"type":"SCALAR"
		},
		{
			"bufferView":24,
			"componentType":5126,
			"count":7936,
			"max":[
				0.7251080274581909,
				0.29319849610328674,
				0.845108151435852
			],
			"min":[
				0.1739605963230133,
				-0.213087260723114,
				0.11370936036109924
			],
			"type":"VEC3"
		},
		{
			"bufferView":25,
			"componentType":5126,
			"count":7936,
			"type":"VEC3"
		},
		{
			"bufferView":26,
			"componentType":5126,
			"count":7936,
			"type":"VEC2"
		},
		{
			"bufferView":27,
			"componentType":5123,
			"count":11520,
			"type":"SCALAR"
		},
		{
			"bufferView":28,
			"componentType":5126,
			"count":749,
			"max":[
				0.7941302061080933,
				3.1401896476745605,
				3.429266929626465
			],
			"min":[
				-1.8771443367004395,
				-2.807201862335205,
				-0.8751375675201416
			],
			"type":"VEC3"
		},
		{
			"bufferView":29,
			"componentType":5126,
			"count":749,
			"type":"VEC3"
		},
		{
			"bufferView":30,
			"componentType":5126,
			"count":749,
			"type":"VEC2"
		},
		{
			"bufferView":31,
			"componentType":5123,
			"count":3060,
			"type":"SCALAR"
		}
	],
	"bufferViews":[
		{
			"buffer":0,
			"byteLength":2304,
			"byteOffset":0,
			"target":34962
		},
		{
			"buffer":0,
			"byteLength":2304,
			"byteOffset":2304,
			"target":34962
		},
		{
			"buffer":0,
			"byteLength":1536,
			"byteOffset":4608,
			"target":34962
		},
		{
			"buffer":0,
			"byteLength":744,
			"byteOffset":6144,
			"target":34963
		},
		{
			"buffer":0,
			"byteLength":33048,
			"byteOffset":6888,
			"target":34962
		},
		{
			"buffer":0,
			"byteLength":33048,
			"byteOffset":39936,
			"target":34962
		},
		{
			"buffer":0,
			"byteLength":22032,
			"byteOffset":72984,
			"target":34962
		},
		{
			"buffer":0,
			"byteLength":32832,
			"byteOffset":95016,
			"target":34963
		},
		{
			"buffer":0,
			"byteLength":47736,
			"byteOffset":127848,
			"target":34962
		},
		{
			"buffer":0,
			"byteLength":47736,
			"byteOffset":175584,
			"target":34962
		},
		{
			"buffer":0,
			"byteLength":31824,
			"byteOffset":223320,
			"target":34962
		},
		{
			"buffer":0,
			"byteLength":47424,
			"byteOffset":255144,
			"target":34963
		},
		{
			"buffer":0,
			"byteLength":171840,
			"byteOffset":302568,
			"target":34962
		},
		{
			"buffer":0,
			"byteLength":171840,
			"byteOffset":474408,
			"target":34962
		},
		{
			"buffer":0,
			"byteLength":114560,
			"byteOffset":646248,
			"target":34962
		},
		{
			"buffer":0,
			"byteLength":51912,
			"byteOffset":760808,
			"target":34963
		},
		{
			"buffer":0,
			"byteLength":142848,
			"byteOffset":812720,
			"target":34962
		},
		{
			"buffer":0,
			"byteLength":142848,
			"byteOffset":955568,
			"target":34962
		},
		{
			"buffer":0,
			"byteLength":95232,
			"byteOffset":1098416,
			"target":34962
		},
		{
			"buffer":0,
			"byteLength":34560,
			"byteOffset":1193648,
			"target":34963
		},
		{
			"buffer":0,
			"byteLength":14688,
			"byteOffset":1228208,
			"target":34962
		},
		{
			"buffer":0,
			"byteLength":14688,
			"byteOffset":1242896,
			"target":34962
		},
		{
			"buffer":0,
			"byteLength":9792,
			"byteOffset":1257584,
			"target":34962
		},
		{
			"buffer":0,
			"byteLength":14592,
			"byteOffset":1267376,
			"target":34963
		},
		{
			"buffer":0,
			"byteLength":95232,
			"byteOffset":1281968,
			"target":34962
		},
		{
			"buffer":0,
			"byteLength":95232,
			"byteOffset":1377200,
			"target":34962
		},
		{
			"buffer":0,
			"byteLength":63488,
			"byteOffset":1472432,
			"target":34962
		},
		{
			"buffer":0,
			"byteLength":23040,
			"byteOffset":1535920,
			"target":34963
		},
		{
			"buffer":0,
			"byteLength":8988,
			"byteOffset":1558960,
			"target":34962
		},
		{
			"buffer":0,
			"byteLength":8988,
			"byteOffset":1567948,
			"target":34962
		},
		{
			"buffer":0,
			"byteLength":5992,
			"byteOffset":1576936,
			"target":34962
		},
		{
			"buffer":0,
			"byteLength":6120,
			"byteOffset":1582928,
			"target":34963
		}
	],
	"samplers":[
		{
			"magFilter":9729,
			"minFilter":9987
		}
	],
	"buffers":[
		{
			"byteLength":1589048,
			"uri":"1028hairclipcolor.bin"
		}
	]
}
